<svg width="48" height="48" viewBox="0 0 48 48" fill="none" xmlns="http://www.w3.org/2000/svg">
<path d="M17 22H4V9.722C4 9.325 4.325 9 4.722 9H16.278C16.675 9 17 9.325 17 9.722V22Z" fill="url(#paint0_linear_29_6716)"/>
<path d="M8.69397 9H12.305V10.806H8.69397V9Z" fill="#FFF8E6"/>
<path d="M44 36C44 39.313 41.313 42 38 42C34.687 42 32 39.313 32 36C32 32.687 34.687 30 38 30C41.313 30 44 32.687 44 36Z" fill="#586169"/>
<path d="M41 36C41 37.657 39.658 39 38 39C36.342 39 35 37.658 35 36C35 34.342 36.342 33 38 33C39.658 33 41 34.342 41 36Z" fill="#999999"/>
<path d="M38.502 27C34.359 27 31 30.582 31 35H44.975C45.552 35 46.009 34.454 45.927 33.844C45.402 29.974 42.278 27 38.502 27Z" fill="#A94420"/>
<path d="M18 36C18 39.313 15.313 42 12 42C8.687 42 6 39.313 6 36C6 32.687 8.687 30 12 30C15.313 30 18 32.687 18 36Z" fill="#586169"/>
<path d="M15 36C15 37.657 13.658 39 12 39C10.342 39 9 37.658 9 36C9 34.342 10.342 33 12 33C13.658 33 15 34.342 15 36Z" fill="#999999"/>
<path d="M33.5 12H36.764C37.447 12 38 11.447 38 10.764V6.236C38 5.553 37.447 5 36.764 5H33.5C31.567 5 30 6.567 30 8.5C30 10.433 31.567 12 33.5 12Z" fill="#A94420"/>
<path d="M34 12H32H28V14H31.652L28.594 31.586C28.552 31.825 28.345 32 28.101 32H22.189C21.982 32 21.797 31.873 21.722 31.679L18.246 22.641C18.098 22.255 17.727 22 17.313 22H9.00003C5.42203 23.789 2.64503 27.978 2.09803 33.135C1.99203 34.136 2.80803 35 3.81503 35H30H32L40 27C39.634 22.078 37 15 34 12Z" fill="#F15A24"/>
<path d="M25 14H28V12H25C24.448 12 24 12.448 24 13C24 13.552 24.448 14 25 14Z" fill="#565B5E"/>
<path d="M3.5 24H18.771L18.247 22.64C18.098 22.254 17.727 22 17.314 22H3.5C3.224 22 3 22.224 3 22.5V23.5C3 23.776 3.224 24 3.5 24Z" fill="#A94420"/>
<defs>
<linearGradient id="paint0_linear_29_6716" x1="4.253" y1="9.283" x2="16.647" y2="22.045" gradientUnits="userSpaceOnUse">
<stop stop-color="#FFD869"/>
<stop offset="1" stop-color="#FEC52B"/>
</linearGradient>
</defs>
</svg>
