<svg width="48" height="48" viewBox="0 0 48 48" fill="none" xmlns="http://www.w3.org/2000/svg">
<path d="M43 36H29V14H39.559C40.419 14 41.184 14.551 41.456 15.368L45 26V34C45 35.105 44.105 36 43 36Z" fill="#EDBE00"/>
<path d="M29 36H5C3.895 36 3 35.105 3 34V9C3 7.895 3.895 7 5 7H27C28.105 7 29 7.895 29 9V36Z" fill="#F15A24"/>
<path d="M42 36C42 38.761 39.762 41 37 41C34.238 41 32 38.761 32 36C32 33.239 34.238 31 37 31C39.762 31 42 33.239 42 36Z" fill="#586169"/>
<path d="M18 36C18 38.761 15.761 41 13 41C10.239 41 8 38.761 8 36C8 33.239 10.239 31 13 31C15.761 31 18 33.239 18 36Z" fill="#586169"/>
<path d="M39 36C39 37.105 38.105 38 37 38C35.895 38 35 37.105 35 36C35 34.895 35.895 34 37 34C38.105 34 39 34.895 39 36Z" fill="#999999"/>
<path d="M15 36C15 37.105 14.105 38 13 38C11.895 38 11 37.105 11 36C11 34.895 11.895 34 13 34C14.105 34 15 34.895 15 36Z" fill="#999999"/>
<path d="M41 25H34C33.448 25 33 24.552 33 24V17C33 16.448 33.448 16 34 16H39C39.432 16 39.813 16.275 39.949 16.684L41.949 22.684C41.982 22.786 42 22.893 42 23V24C42 24.552 41.552 25 41 25Z" fill="#AD8B00"/>
<path d="M15.5 29C20.7467 29 25 24.7467 25 19.5C25 14.2533 20.7467 10 15.5 10C10.2533 10 6 14.2533 6 19.5C6 24.7467 10.2533 29 15.5 29Z" fill="url(#paint0_radial_29_6732)"/>
<path d="M15.5 28C20.1944 28 24 24.1944 24 19.5C24 14.8056 20.1944 11 15.5 11C10.8056 11 7 14.8056 7 19.5C7 24.1944 10.8056 28 15.5 28Z" fill="url(#paint1_radial_29_6732)"/>
<path d="M15.5 20C15.372 20 15.244 19.951 15.146 19.854C14.951 19.659 14.951 19.342 15.146 19.147L19.642 14.651C19.837 14.456 20.154 14.456 20.349 14.651C20.544 14.846 20.544 15.163 20.349 15.358L15.853 19.854C15.756 19.951 15.628 20 15.5 20Z" fill="#45494D"/>
<path d="M15.499 20.125C15.405 20.125 15.311 20.104 15.221 20.059L9.92198 17.41C9.61298 17.256 9.48698 16.881 9.64298 16.572C9.79798 16.262 10.175 16.138 10.481 16.293L15.78 18.942C16.089 19.096 16.215 19.471 16.059 19.78C15.949 19.998 15.729 20.125 15.499 20.125Z" fill="#45494D"/>
<path d="M15.5 21C16.3284 21 17 20.3284 17 19.5C17 18.6716 16.3284 18 15.5 18C14.6716 18 14 18.6716 14 19.5C14 20.3284 14.6716 21 15.5 21Z" fill="#1E2021"/>
<defs>
<radialGradient id="paint0_radial_29_6732" cx="0" cy="0" r="1" gradientUnits="userSpaceOnUse" gradientTransform="translate(15.5 19.5) scale(9.5)">
<stop/>
<stop offset="1" stop-opacity="0"/>
</radialGradient>
<radialGradient id="paint1_radial_29_6732" cx="0" cy="0" r="1" gradientUnits="userSpaceOnUse" gradientTransform="translate(15.445 11.197) scale(18.942)">
<stop stop-color="#FAFAFB"/>
<stop offset="1" stop-color="#C8CDD1"/>
</radialGradient>
</defs>
</svg>
